<?xml version="1.0" encoding="UTF-8"?><svg id="a" xmlns="http://www.w3.org/2000/svg" width="39.2684mm" height="49.3391mm" viewBox="0 0 111.3119 139.859"><defs><style>.b{fill:#0e2102;}.c{fill:#b79a5e;}</style></defs><polygon class="c" points="62.4636 27.3613 65.0164 24.8462 55.5886 15.3301 41.0271 30.0288 46.0711 30.0288 55.5886 20.4224 62.4636 27.3613"/><polygon class="c" points="75.7371 35.667 68.2459 28.105 39.0252 56.9004 39.0252 38.1953 51.4724 38.1953 55.1092 34.6118 36.4871 34.6118 35.4412 35.667 35.4412 61.7822 39.1756 61.7822 68.2146 33.166 72.1531 37.1406 72.1531 58.1987 49.3084 58.1987 45.6717 61.7822 75.7371 61.7822 75.7371 35.667"/><path class="c" d="M24.7283,0V79.1875h61.7217V0H24.7283Zm60.1797,77.6455H26.2703V1.542h58.6377V77.6455Z"/><g><path class="b" d="M33.5599,105.7953c.6556,.3418,1.1689,.8125,1.5399,1.4116,.371,.5984,.5565,1.2903,.5565,2.0749,0,1.2261-.4358,2.2458-1.3062,3.0583-.8691,.8125-1.9313,1.2191-3.1866,1.2191h-6.4164v-14.9719h5.9463c1.2261,0,2.2642,.3958,3.1129,1.1867,.8475,.7916,1.2719,1.7795,1.2719,2.9624,0,1.2979-.507,2.3175-1.5183,3.0589Zm-2.8664-4.8981h-3.4865v3.9356h3.4865c.5413,0,.9987-.1893,1.3697-.5667,.3697-.378,.5552-.8449,.5552-1.4015,0-.5559-.1855-1.0228-.5552-1.4008-.371-.3774-.8284-.5667-1.3697-.5667Zm.4701,10.3521c.5705,0,1.052-.2033,1.4434-.6099,.3939-.406,.5896-.9015,.5896-1.4859,0-.5851-.1957-1.0806-.5896-1.4866-.3913-.4066-.8729-.6099-1.4434-.6099h-3.9566v4.1923h3.9566Z"/><path class="b" d="M41.3231,111.2067h6.0963v2.3525h-8.5561v-14.9719h2.4598v12.6194Z"/><path class="b" d="M50.3062,98.5873h2.4598v14.9719h-2.4598v-14.9719Z"/><path class="b" d="M61.5991,113.8375c-1.4408,0-2.6631-.3278-3.6682-.9841-1.005-.6556-1.7077-1.5539-2.1066-2.6949l2.1181-1.2407c.5984,1.6829,1.8385,2.524,3.7203,2.524,.9275,0,1.6225-.1811,2.0863-.5438,.4625-.3628,.695-.8354,.695-1.4186,0-.6118-.2503-1.0775-.7496-1.397-.4993-.3202-1.3849-.6721-2.6555-1.0565-.6963-.2586-1.2693-.4714-1.7178-.6385-.4485-.1664-.9186-.4174-1.4116-.7528-.4917-.3348-.8589-.7515-1.1003-1.2509-.244-.4993-.3647-1.0838-.3647-1.754,0-1.3259,.4714-2.3773,1.4116-3.1549,.9415-.777,2.0749-1.1658,3.4013-1.1658,1.1982,0,2.2451,.2922,3.1447,.8767,.897,.5851,1.5882,1.3907,2.0736,2.4173l-2.0736,1.1975c-.6277-1.397-1.6772-2.0958-3.1447-2.0958-.7128,0-1.2833,.1677-1.7115,.5025-.4269,.3354-.6416,.7884-.6416,1.3583,0,.5444,.2185,.9739,.6569,1.2884,.4371,.3138,1.2287,.6461,2.376,.9949,.5591,.2109,.9695,.3653,1.2299,.4631,.2592,.0978,.6327,.2389,1.1194,.4218s.85,.3761,1.0902,.5781,.4981,.4549,.7738,.7585c.2757,.303,.4701,.6499,.5845,1.0393,.1118,.3901,.169,.8303,.169,1.3214,0,1.3551-.4892,2.4274-1.465,3.219-.9771,.7916-2.2566,1.1874-3.8397,1.1874Z"/><path class="b" d="M81.2766,113.5592h-2.93l-5.9044-7.1311v7.1311h-2.4586v-14.9719h2.4586v6.7214l5.6897-6.7214h2.93l-6.0518,7.2938,6.2665,7.6781Z"/><path class="b" d="M83.9512,98.5873h2.4586v14.9719h-2.4586v-14.9719Z"/><path class="b" d="M13.2712,137.6024c-1.5044,1.5044-3.3391,2.2566-5.5067,2.2566s-4.0036-.7522-5.508-2.2566c-1.5044-1.5044-2.2566-3.3404-2.2566-5.508s.7522-4.003,2.2566-5.5073c1.5044-1.5044,3.3404-2.2566,5.508-2.2566s4.0023,.7522,5.5067,2.2566,2.2566,3.3404,2.2566,5.5073-.7522,4.0036-2.2566,5.508Zm-9.2829-1.6683c1.0203,1.0196,2.2794,1.5291,3.7762,1.5291s2.7546-.5095,3.7749-1.5291c1.019-1.0196,1.5285-2.2998,1.5285-3.8397s-.5095-2.8194-1.5285-3.8391c-1.0203-1.019-2.2782-1.5291-3.7749-1.5291s-2.7559,.5101-3.7762,1.5291c-1.019,1.0196-1.5285,2.2991-1.5285,3.8391s.5095,2.8201,1.5285,3.8397Z"/><path class="b" d="M21.3026,137.2282h6.0963v2.3525h-8.5548v-14.9719h2.4586v12.6194Z"/><path class="b" d="M32.7454,137.2282h6.6312v2.3525h-9.0897v-14.9719h8.983v2.3525h-6.5244v3.8931h5.9883v2.3309h-5.9883v4.043Z"/><path class="b" d="M49.6429,139.859c-2.254,0-4.1218-.7452-5.6033-2.2356-1.484-1.4898-2.2261-3.3327-2.2261-5.5289s.742-4.0385,2.2261-5.5289c1.4815-1.4898,3.3493-2.235,5.6033-2.235,1.3544,0,2.6047,.3208,3.7533,.9625s2.0431,1.512,2.6847,2.6098l-2.1384,1.2401c-.4002-.7407-.9809-1.329-1.7432-1.7642-.7636-.4352-1.6162-.6524-2.5564-.6524-1.5971,0-2.8918,.5063-3.8829,1.5183-.9911,1.0127-1.4866,2.2959-1.4866,3.8499s.4955,2.8378,1.4866,3.8505c.9911,1.012,2.2858,1.5183,3.8829,1.5183,.9402,0,1.7966-.2173,2.5666-.6524,.77-.4345,1.3468-1.0228,1.7331-1.7642l2.1384,1.2191c-.6277,1.0978-1.5158,1.9713-2.6631,2.6199s-2.4065,.9733-3.7749,.9733Z"/><path class="b" d="M68.0587,124.6088h2.4598v14.9719h-2.4598v-6.4806h-6.4164v6.4806h-2.4598v-14.9719h2.4598v6.1382h6.4164v-6.1382Z"/><path class="b" d="M87.1048,137.6024c-1.5044,1.5044-3.3404,2.2566-5.5067,2.2566-2.1676,0-4.0049-.7522-5.5092-2.2566s-2.2566-3.3404-2.2566-5.508,.7522-4.003,2.2566-5.5073,3.3416-2.2566,5.5092-2.2566c2.1663,0,4.0023,.7522,5.5067,2.2566s2.2566,3.3404,2.2566,5.5073-.7522,4.0036-2.2566,5.508Zm-9.2829-1.6683c1.019,1.0196,2.2782,1.5291,3.7762,1.5291,1.4967,0,2.7546-.5095,3.7736-1.5291s1.5298-2.2998,1.5298-3.8397-.5108-2.8194-1.5298-3.8391c-1.019-1.019-2.2769-1.5291-3.7736-1.5291-1.498,0-2.7572,.5101-3.7762,1.5291-1.019,1.0196-1.5298,2.2991-1.5298,3.8391s.5108,2.8201,1.5298,3.8397Zm2.2782-12.8227h2.2248l2.2667-2.8874h-2.78l-1.7115,2.8874Z"/><path class="b" d="M95.0446,139.5807l-4.0798-14.9719h2.5793l3.1536,11.7002,3.4001-11.7002h2.268l3.3797,11.6995,3.1447-11.6995h2.4217l-4.0697,14.9719h-2.8448l-3.1676-10.9689-3.1879,10.9689h-2.9973Z"/></g></svg>